<svg id="Capa_1" enable-background="new 0 0 512 512" height="512" viewBox="0 0 512 512" width="512" xmlns="http://www.w3.org/2000/svg"><g><g><path d="m256 56.888c-79.451 0-144.09 64.639-144.09 144.09s64.639 144.09 144.09 144.09 144.09-64.639 144.09-144.09-64.639-144.09-144.09-144.09zm0 268.18c-68.423 0-124.09-55.667-124.09-124.09s55.667-124.09 124.09-124.09 124.09 55.667 124.09 124.09-55.667 124.09-124.09 124.09z"/><path d="m309.996 163.422h-16.767v-17.094c0-13.154-10.63-23.855-23.696-23.855h-27.067c-13.066 0-23.696 10.701-23.696 23.855v17.094h-16.766c-13.066 0-23.696 10.701-23.696 23.855v27.402c0 13.154 10.63 23.855 23.696 23.855h16.766v17.094c0 13.154 10.63 23.855 23.696 23.855h27.067c13.066 0 23.696-10.701 23.696-23.855v-17.094h16.767c13.066 0 23.696-10.701 23.696-23.855v-27.402c0-13.154-10.63-23.855-23.696-23.855zm3.696 51.257c0 2.126-1.658 3.855-3.696 3.855h-26.767c-5.523 0-10 4.477-10 10v27.094c0 2.126-1.658 3.855-3.696 3.855h-27.067c-2.038 0-3.696-1.729-3.696-3.855v-27.094c0-5.523-4.477-10-10-10h-26.766c-2.038 0-3.696-1.729-3.696-3.855v-27.402c0-2.126 1.658-3.855 3.696-3.855h26.766c5.523 0 10-4.477 10-10v-27.094c0-2.126 1.658-3.855 3.696-3.855h27.067c2.038 0 3.696 1.729 3.696 3.855v27.094c0 5.523 4.477 10 10 10h26.767c2.038 0 3.696 1.729 3.696 3.855z"/><path d="m367.755 404.681h-41.189c36.459-32.445 74.466-66.38 76.889-68.998 35.2-38.035 54.046-87.542 53.068-139.401-.98-51.971-21.809-100.844-58.648-137.625l-.094-.097c-.044-.046-.09-.092-.135-.137-37.856-37.675-88.161-58.423-141.65-58.423-53.556 0-103.916 20.808-141.801 58.59-37.888 37.773-58.754 88.018-58.754 141.477 0 50.451 18.852 98.608 53.084 135.598 2.43 2.626 40.443 36.568 76.904 69.016h-41.185c-29.588 0-53.66 24.072-53.66 53.66s24.072 53.659 53.66 53.659h66.549c5.523 0 10-4.477 10-10s-4.477-10-10-10h-66.549c-18.56 0-33.66-15.1-33.66-33.66s15.1-33.66 33.66-33.66h63.224c.147 0 .293-.004.438-.01 18.584 16.518 34.394 30.55 41.454 36.813 1.893 1.68 4.265 2.52 6.637 2.52s4.744-.84 6.637-2.52c7.059-6.263 22.865-20.29 41.444-36.804h63.678c18.56 0 33.66 15.1 33.66 33.66s-15.1 33.66-33.66 33.66h-66.549c-5.523 0-10 4.477-10 10s4.477 10 10 10h66.549c29.588 0 53.66-24.072 53.66-53.66s-24.073-53.658-53.661-53.658zm-111.759 35.953c-53.358-47.357-128.283-114.038-132.854-118.622-30.761-33.274-47.701-76.577-47.701-121.946 0-48.105 18.778-93.319 52.876-127.314 34.111-34.018 79.455-52.752 127.679-52.752 48.132 0 93.4 18.657 127.475 52.532l.087.09c.042.043.085.086.127.129 68.748 68.575 71.005 178.053 5.152 249.279-4.567 4.579-79.485 71.251-132.841 118.604z"/><path d="m265.42 498.17c-1.609-3.863-5.587-6.377-9.771-6.15-4.157.225-7.823 3.095-9.029 7.079-1.187 3.921.197 8.344 3.474 10.832 3.386 2.57 8.094 2.727 11.636.379 3.94-2.611 5.476-7.782 3.69-12.14z"/></g></g></svg>